<svg width="74" height="45" viewBox="0 0 74 45" fill="none" xmlns="http://www.w3.org/2000/svg">
<rect x="0.25" y="5.25" width="73.5" height="33.5" rx="1.75" fill="white" stroke="black" stroke-width="0.5"/>
<path d="M13.7852 22.6318H11.2285L11.2148 21.2236H13.3613C13.7396 21.2236 14.0495 21.1758 14.291 21.0801C14.5326 20.9798 14.7126 20.8363 14.8311 20.6494C14.9541 20.458 15.0156 20.2256 15.0156 19.9521C15.0156 19.6423 14.9564 19.3916 14.8379 19.2002C14.724 19.0088 14.5439 18.8698 14.2979 18.7832C14.0563 18.6966 13.7441 18.6533 13.3613 18.6533H11.9395V27H9.88867V17.0469H13.3613C13.9401 17.0469 14.4574 17.1016 14.9131 17.2109C15.3734 17.3203 15.763 17.4867 16.082 17.71C16.401 17.9333 16.6449 18.2158 16.8135 18.5576C16.9821 18.8949 17.0664 19.2959 17.0664 19.7607C17.0664 20.1709 16.973 20.5492 16.7861 20.8955C16.6038 21.2419 16.3145 21.5244 15.918 21.7432C15.526 21.9619 15.0133 22.0827 14.3799 22.1055L13.7852 22.6318ZM13.6963 27H10.668L11.4678 25.4004H13.6963C14.0563 25.4004 14.3503 25.3434 14.5781 25.2295C14.806 25.111 14.9746 24.9515 15.084 24.751C15.1934 24.5505 15.248 24.3203 15.248 24.0605C15.248 23.7689 15.1979 23.516 15.0977 23.3018C15.002 23.0876 14.847 22.9235 14.6328 22.8096C14.4186 22.6911 14.1361 22.6318 13.7852 22.6318H11.8096L11.8232 21.2236H14.2842L14.7559 21.7773C15.362 21.7682 15.8496 21.8753 16.2188 22.0986C16.5924 22.3174 16.8636 22.6022 17.0322 22.9531C17.2054 23.304 17.292 23.68 17.292 24.0811C17.292 24.7191 17.153 25.2568 16.875 25.6943C16.597 26.1273 16.1891 26.4531 15.6514 26.6719C15.1182 26.8906 14.4665 27 13.6963 27ZM24.3262 17.0469H26.3701V23.623C26.3701 24.3887 26.2061 25.0335 25.8779 25.5576C25.5544 26.0817 25.1055 26.4759 24.5312 26.7402C23.9616 27.0046 23.3053 27.1367 22.5625 27.1367C21.8197 27.1367 21.1589 27.0046 20.5801 26.7402C20.0059 26.4759 19.5547 26.0817 19.2266 25.5576C18.903 25.0335 18.7412 24.3887 18.7412 23.623V17.0469H20.792V23.623C20.792 24.0697 20.8626 24.4342 21.0039 24.7168C21.1452 24.9993 21.348 25.2067 21.6123 25.3389C21.8812 25.471 22.1979 25.5371 22.5625 25.5371C22.9362 25.5371 23.2529 25.471 23.5127 25.3389C23.777 25.2067 23.9775 24.9993 24.1143 24.7168C24.2555 24.4342 24.3262 24.0697 24.3262 23.623V17.0469ZM32.5088 17.0469V27H30.4648V17.0469H32.5088ZM35.5713 17.0469V18.6533H27.4502V17.0469H35.5713ZM41.2998 17.0469V27H39.2559V17.0469H41.2998ZM44.3623 17.0469V18.6533H36.2412V17.0469H44.3623ZM53.5156 21.791V22.2627C53.5156 23.0192 53.4131 23.6982 53.208 24.2998C53.0029 24.9014 52.7135 25.4141 52.3398 25.8379C51.9661 26.2572 51.5195 26.5785 51 26.8018C50.485 27.0251 49.9131 27.1367 49.2842 27.1367C48.6598 27.1367 48.0879 27.0251 47.5684 26.8018C47.0534 26.5785 46.6068 26.2572 46.2285 25.8379C45.8503 25.4141 45.5563 24.9014 45.3467 24.2998C45.1416 23.6982 45.0391 23.0192 45.0391 22.2627V21.791C45.0391 21.0299 45.1416 20.3509 45.3467 19.7539C45.5518 19.1523 45.8411 18.6396 46.2148 18.2158C46.5931 17.792 47.0397 17.4684 47.5547 17.2451C48.0742 17.0218 48.6462 16.9102 49.2705 16.9102C49.8994 16.9102 50.4714 17.0218 50.9863 17.2451C51.5059 17.4684 51.9525 17.792 52.3262 18.2158C52.7044 18.6396 52.9961 19.1523 53.2012 19.7539C53.4108 20.3509 53.5156 21.0299 53.5156 21.791ZM51.4443 22.2627V21.7773C51.4443 21.2487 51.3965 20.7839 51.3008 20.3828C51.2051 19.9818 51.0638 19.6445 50.877 19.3711C50.6901 19.0977 50.4622 18.8926 50.1934 18.7559C49.9245 18.6146 49.6169 18.5439 49.2705 18.5439C48.9242 18.5439 48.6165 18.6146 48.3477 18.7559C48.0833 18.8926 47.8577 19.0977 47.6709 19.3711C47.4886 19.6445 47.3496 19.9818 47.2539 20.3828C47.1582 20.7839 47.1104 21.2487 47.1104 21.7773V22.2627C47.1104 22.7868 47.1582 23.2516 47.2539 23.6572C47.3496 24.0583 47.4909 24.3978 47.6777 24.6758C47.8646 24.9492 48.0924 25.1566 48.3613 25.2979C48.6302 25.4391 48.9378 25.5098 49.2842 25.5098C49.6305 25.5098 49.9382 25.4391 50.207 25.2979C50.4759 25.1566 50.7015 24.9492 50.8838 24.6758C51.0661 24.3978 51.2051 24.0583 51.3008 23.6572C51.3965 23.2516 51.4443 22.7868 51.4443 22.2627ZM63.0928 17.0469V27H61.042L57.043 20.3281V27H54.9922V17.0469H57.043L61.0488 23.7256V17.0469H63.0928Z" fill="black"/>
</svg>
