<svg width="58" height="48" viewBox="0 0 58 48" fill="none" xmlns="http://www.w3.org/2000/svg">
<path fill-rule="evenodd" clip-rule="evenodd" d="M2.32 0C1.0387 0 0 1.0387 0 2.32V44.8533C0 46.1346 1.0387 47.1733 2.32 47.1733H55.68C56.9613 47.1733 58 46.1346 58 44.8533V2.32C58 1.0387 56.9613 0 55.68 0H2.32ZM6.57333 3.86667C7.21398 3.86667 7.73333 3.34732 7.73333 2.70667C7.73333 2.06602 7.21398 1.54667 6.57333 1.54667C5.93268 1.54667 5.41333 2.06602 5.41333 2.70667C5.41333 3.34732 5.93268 3.86667 6.57333 3.86667ZM3.86667 2.70668C3.86667 3.34733 3.34732 3.86668 2.70667 3.86668C2.06602 3.86668 1.54667 3.34733 1.54667 2.70668C1.54667 2.06603 2.06602 1.54668 2.70667 1.54668C3.34732 1.54668 3.86667 2.06603 3.86667 2.70668ZM1.54667 6.96001C1.54667 6.53291 1.8929 6.18667 2.32 6.18667H55.68C56.1071 6.18667 56.4533 6.5329 56.4533 6.96V44.8533C56.4533 45.2804 56.1071 45.6267 55.68 45.6267H2.32C1.8929 45.6267 1.54667 45.2804 1.54667 44.8533V6.96001ZM11.6 2.70667C11.6 3.34732 11.0807 3.86667 10.44 3.86667C9.79935 3.86667 9.28 3.34732 9.28 2.70667C9.28 2.06602 9.79935 1.54667 10.44 1.54667C11.0807 1.54667 11.6 2.06602 11.6 2.70667Z" fill="#222222"/>
<rect x="11.5034" y="8.41002" width="34.9933" height="34.9933" stroke="black" stroke-width="0.193333"/>
<rect x="12.3734" y="9.28002" width="33.2533" height="33.2533" fill="#FAFAFA" stroke="#222222" stroke-width="1.54667" stroke-dasharray="5.03 1.55"/>
</svg>
