<svg width="21" height="21" viewBox="0 0 21 21" fill="none" xmlns="http://www.w3.org/2000/svg">
<path d="M7.59766 1.43036C7.59766 1.76188 7.46596 2.07982 7.23154 2.31424C6.99712 2.54866 6.67918 2.68036 6.34766 2.68036H3.01953V6.00848C3.01953 6.34 2.88784 6.65795 2.65341 6.89237C2.41899 7.12679 2.10105 7.25848 1.76953 7.25848C1.43801 7.25848 1.12007 7.12679 0.885648 6.89237C0.651227 6.65795 0.519531 6.34 0.519531 6.00848V1.43036C0.519531 1.09884 0.651227 0.780896 0.885648 0.546475C1.12007 0.312055 1.43801 0.180359 1.76953 0.180359L6.34766 0.180359C6.67918 0.180359 6.99712 0.312055 7.23154 0.546475C7.46596 0.780896 7.59766 1.09884 7.59766 1.43036ZM6.34766 17.6804H3.01953V14.3522C3.01953 14.0207 2.88784 13.7028 2.65341 13.4684C2.41899 13.2339 2.10105 13.1022 1.76953 13.1022C1.43801 13.1022 1.12007 13.2339 0.885648 13.4684C0.651227 13.7028 0.519531 14.0207 0.519531 14.3522L0.519531 18.9304C0.519531 19.2619 0.651227 19.5798 0.885648 19.8142C1.12007 20.0487 1.43801 20.1804 1.76953 20.1804H6.34766C6.67918 20.1804 6.99712 20.0487 7.23154 19.8142C7.46596 19.5798 7.59766 19.2619 7.59766 18.9304C7.59766 18.5988 7.46596 18.2809 7.23154 18.0465C6.99712 17.8121 6.67918 17.6804 6.34766 17.6804ZM19.2695 13.1022C18.938 13.1022 18.6201 13.2339 18.3856 13.4684C18.1512 13.7028 18.0195 14.0207 18.0195 14.3522V17.6804H14.6914C14.3599 17.6804 14.0419 17.8121 13.8075 18.0465C13.5731 18.2809 13.4414 18.5988 13.4414 18.9304C13.4414 19.2619 13.5731 19.5798 13.8075 19.8142C14.0419 20.0487 14.3599 20.1804 14.6914 20.1804H19.2695C19.6011 20.1804 19.919 20.0487 20.1534 19.8142C20.3878 19.5798 20.5195 19.2619 20.5195 18.9304V14.3522C20.5195 14.0207 20.3878 13.7028 20.1534 13.4684C19.919 13.2339 19.6011 13.1022 19.2695 13.1022ZM19.2695 0.180359H14.6914C14.3599 0.180359 14.0419 0.312055 13.8075 0.546475C13.5731 0.780896 13.4414 1.09884 13.4414 1.43036C13.4414 1.76188 13.5731 2.07982 13.8075 2.31424C14.0419 2.54866 14.3599 2.68036 14.6914 2.68036H18.0195V6.00848C18.0195 6.34 18.1512 6.65795 18.3856 6.89237C18.6201 7.12679 18.938 7.25848 19.2695 7.25848C19.6011 7.25848 19.919 7.12679 20.1534 6.89237C20.3878 6.65795 20.5195 6.34 20.5195 6.00848V1.43036C20.5195 1.09884 20.3878 0.780896 20.1534 0.546475C19.919 0.312055 19.6011 0.180359 19.2695 0.180359Z" fill="white"/>
</svg>
