<svg width="76" height="41" viewBox="0 0 76 41" fill="none" xmlns="http://www.w3.org/2000/svg">
<mask id="path-1-outside-1_81_479" maskUnits="userSpaceOnUse" x="0.5" y="2" width="75" height="20" fill="black">
<rect fill="white" x="0.5" y="2" width="75" height="20"/>
<path d="M10.2559 9.54688V11.2959H3.46191V9.54688H10.2559ZM4.00684 4.20312V17H1.80078V4.20312H4.00684ZM11.9521 4.20312V17H9.75488V4.20312H11.9521ZM19.8215 17.1758C19.1184 17.1758 18.4827 17.0615 17.9143 16.833C17.3518 16.5986 16.8713 16.2734 16.4729 15.8574C16.0803 15.4414 15.7786 14.9521 15.5676 14.3896C15.3567 13.8271 15.2512 13.2207 15.2512 12.5703V12.2188C15.2512 11.4746 15.3596 10.8008 15.5764 10.1973C15.7932 9.59375 16.095 9.07812 16.4817 8.65039C16.8684 8.2168 17.3254 7.88574 17.8528 7.65723C18.3801 7.42871 18.9514 7.31445 19.5666 7.31445C20.2463 7.31445 20.8411 7.42871 21.3508 7.65723C21.8606 7.88574 22.2825 8.20801 22.6164 8.62402C22.9563 9.03418 23.2082 9.52344 23.3723 10.0918C23.5422 10.6602 23.6272 11.2871 23.6272 11.9727V12.8779H16.2795V11.3574H21.5354V11.1904C21.5237 10.8096 21.4475 10.4521 21.3069 10.1182C21.1721 9.78418 20.9641 9.51465 20.6829 9.30957C20.4016 9.10449 20.0266 9.00195 19.5579 9.00195C19.2063 9.00195 18.8928 9.07812 18.6174 9.23047C18.3479 9.37695 18.1223 9.59082 17.9407 9.87207C17.759 10.1533 17.6184 10.4932 17.5188 10.8916C17.425 11.2842 17.3782 11.7266 17.3782 12.2188V12.5703C17.3782 12.9863 17.4338 13.373 17.5452 13.7305C17.6623 14.082 17.8323 14.3896 18.0549 14.6533C18.2776 14.917 18.5471 15.125 18.8635 15.2773C19.1799 15.4238 19.5403 15.4971 19.9446 15.4971C20.4543 15.4971 20.9084 15.3945 21.3069 15.1895C21.7053 14.9844 22.051 14.6943 22.344 14.3193L23.4602 15.4004C23.2551 15.6992 22.9885 15.9863 22.6604 16.2617C22.3323 16.5312 21.9309 16.751 21.4563 16.9209C20.9875 17.0908 20.4426 17.1758 19.8215 17.1758ZM31.9009 15.0928V10.5576C31.9009 10.2178 31.8393 9.9248 31.7163 9.67871C31.5932 9.43262 31.4057 9.24219 31.1538 9.10742C30.9077 8.97266 30.5971 8.90527 30.2221 8.90527C29.8764 8.90527 29.5776 8.96387 29.3257 9.08105C29.0737 9.19824 28.8774 9.35645 28.7368 9.55566C28.5962 9.75488 28.5259 9.98047 28.5259 10.2324H26.4165C26.4165 9.85742 26.5073 9.49414 26.6889 9.14258C26.8706 8.79102 27.1343 8.47754 27.48 8.20215C27.8257 7.92676 28.2388 7.70996 28.7192 7.55176C29.1997 7.39355 29.7388 7.31445 30.3364 7.31445C31.0513 7.31445 31.6841 7.43457 32.2348 7.6748C32.7915 7.91504 33.228 8.27832 33.5444 8.76465C33.8667 9.24512 34.0278 9.84863 34.0278 10.5752V14.8027C34.0278 15.2363 34.0571 15.626 34.1157 15.9717C34.1802 16.3115 34.271 16.6074 34.3882 16.8594V17H32.2173C32.1177 16.7715 32.0386 16.4814 31.98 16.1299C31.9272 15.7725 31.9009 15.4268 31.9009 15.0928ZM32.2085 11.2168L32.2261 12.5264H30.7055C30.313 12.5264 29.9673 12.5645 29.6684 12.6406C29.3696 12.7109 29.1206 12.8164 28.9214 12.957C28.7221 13.0977 28.5727 13.2676 28.4731 13.4668C28.3735 13.666 28.3237 13.8916 28.3237 14.1436C28.3237 14.3955 28.3823 14.627 28.4995 14.8379C28.6167 15.043 28.7866 15.2041 29.0093 15.3213C29.2378 15.4385 29.5132 15.4971 29.8354 15.4971C30.269 15.4971 30.647 15.4092 30.9692 15.2334C31.2973 15.0518 31.5552 14.832 31.7427 14.5742C31.9302 14.3105 32.0298 14.0615 32.0415 13.8271L32.727 14.7676C32.6567 15.0078 32.5366 15.2656 32.3667 15.541C32.1968 15.8164 31.9741 16.0801 31.6987 16.332C31.4292 16.5781 31.104 16.7803 30.7231 16.9385C30.3481 17.0967 29.9145 17.1758 29.4223 17.1758C28.8013 17.1758 28.2475 17.0527 27.7612 16.8066C27.2749 16.5547 26.894 16.2178 26.6186 15.7959C26.3432 15.3682 26.2055 14.8848 26.2055 14.3457C26.2055 13.8418 26.2993 13.3965 26.4868 13.0098C26.6802 12.6172 26.9614 12.2891 27.3305 12.0254C27.7055 11.7617 28.1626 11.5625 28.7016 11.4277C29.2407 11.2871 29.8559 11.2168 30.5473 11.2168H32.2085ZM43.3034 15.0312V3.5H45.4304V17H43.5056L43.3034 15.0312ZM37.1159 12.3506V12.166C37.1159 11.4453 37.2009 10.7891 37.3708 10.1973C37.5407 9.59961 37.7868 9.08691 38.1091 8.65918C38.4314 8.22559 38.8239 7.89453 39.2868 7.66602C39.7497 7.43164 40.2712 7.31445 40.8513 7.31445C41.4255 7.31445 41.9294 7.42578 42.363 7.64844C42.7966 7.87109 43.1657 8.19043 43.4704 8.60645C43.7751 9.0166 44.0183 9.50879 44.1999 10.083C44.3816 10.6514 44.5105 11.2842 44.5866 11.9814V12.5703C44.5105 13.25 44.3816 13.8711 44.1999 14.4336C44.0183 14.9961 43.7751 15.4824 43.4704 15.8926C43.1657 16.3027 42.7937 16.6191 42.3542 16.8418C41.9206 17.0645 41.4138 17.1758 40.8337 17.1758C40.2595 17.1758 39.7409 17.0557 39.278 16.8154C38.821 16.5752 38.4314 16.2383 38.1091 15.8047C37.7868 15.3711 37.5407 14.8613 37.3708 14.2754C37.2009 13.6836 37.1159 13.042 37.1159 12.3506ZM39.2341 12.166V12.3506C39.2341 12.7842 39.2722 13.1885 39.3484 13.5635C39.4304 13.9385 39.5564 14.2695 39.7263 14.5566C39.8962 14.8379 40.1159 15.0605 40.3855 15.2246C40.6609 15.3828 40.989 15.4619 41.3698 15.4619C41.8503 15.4619 42.2458 15.3564 42.5564 15.1455C42.8669 14.9346 43.1101 14.6504 43.2859 14.293C43.4675 13.9297 43.5905 13.5254 43.655 13.0801V11.4893C43.6198 11.1436 43.5466 10.8213 43.4353 10.5225C43.3298 10.2236 43.1862 9.96289 43.0046 9.74023C42.823 9.51172 42.5974 9.33594 42.3279 9.21289C42.0642 9.08398 41.7507 9.01953 41.3874 9.01953C41.0007 9.01953 40.6726 9.10156 40.403 9.26562C40.1335 9.42969 39.9109 9.65527 39.7351 9.94238C39.5652 10.2295 39.4392 10.5635 39.3571 10.9443C39.2751 11.3252 39.2341 11.7324 39.2341 12.166ZM51.1728 7.49023V17H49.0459V7.49023H51.1728ZM48.9052 4.99414C48.9052 4.67187 49.0107 4.40527 49.2216 4.19434C49.4384 3.97754 49.7373 3.86914 50.1181 3.86914C50.4931 3.86914 50.789 3.97754 51.0058 4.19434C51.2226 4.40527 51.331 4.67187 51.331 4.99414C51.331 5.31055 51.2226 5.57422 51.0058 5.78516C50.789 5.99609 50.4931 6.10156 50.1181 6.10156C49.7373 6.10156 49.4384 5.99609 49.2216 5.78516C49.0107 5.57422 48.9052 5.31055 48.9052 4.99414ZM56.8537 9.52051V17H54.7355V7.49023H56.7307L56.8537 9.52051ZM56.4758 11.8936L55.7902 11.8848C55.7961 11.2109 55.8898 10.5928 56.0715 10.0303C56.259 9.46777 56.5168 8.98438 56.8449 8.58008C57.1789 8.17578 57.5773 7.86523 58.0402 7.64844C58.5031 7.42578 59.0187 7.31445 59.5871 7.31445C60.0441 7.31445 60.4572 7.37891 60.8264 7.50781C61.2014 7.63086 61.5207 7.83301 61.7844 8.11426C62.0539 8.39551 62.259 8.76172 62.3996 9.21289C62.5402 9.6582 62.6105 10.2061 62.6105 10.8564V17H60.4836V10.8477C60.4836 10.3906 60.4162 10.0303 60.2814 9.7666C60.1525 9.49707 59.9621 9.30664 59.7102 9.19531C59.4641 9.07812 59.1564 9.01953 58.7873 9.01953C58.424 9.01953 58.0988 9.0957 57.8117 9.24805C57.5246 9.40039 57.2814 9.6084 57.0822 9.87207C56.8889 10.1357 56.7395 10.4404 56.634 10.7861C56.5285 11.1318 56.4758 11.501 56.4758 11.8936ZM72.1235 7.49023H74.0483V16.7363C74.0483 17.5918 73.8666 18.3184 73.5034 18.916C73.1401 19.5137 72.6332 19.9678 71.9828 20.2783C71.3325 20.5947 70.5795 20.7529 69.7241 20.7529C69.3608 20.7529 68.9565 20.7002 68.5112 20.5947C68.0717 20.4893 67.644 20.3193 67.228 20.085C66.8178 19.8564 66.475 19.5547 66.1996 19.1797L67.1928 17.9316C67.5327 18.3359 67.9077 18.6318 68.3178 18.8193C68.728 19.0068 69.1586 19.1006 69.6098 19.1006C70.0961 19.1006 70.5092 19.0098 70.8491 18.8281C71.1948 18.6523 71.4614 18.3916 71.6489 18.0459C71.8364 17.7002 71.9301 17.2783 71.9301 16.7803V9.64355L72.1235 7.49023ZM65.6635 12.3506V12.166C65.6635 11.4453 65.7514 10.7891 65.9272 10.1973C66.103 9.59961 66.3549 9.08691 66.683 8.65918C67.0112 8.22559 67.4096 7.89453 67.8784 7.66602C68.3471 7.43164 68.8774 7.31445 69.4692 7.31445C70.0844 7.31445 70.6088 7.42578 71.0424 7.64844C71.4819 7.87109 71.8481 8.19043 72.1411 8.60645C72.434 9.0166 72.6625 9.50879 72.8266 10.083C72.9965 10.6514 73.1225 11.2842 73.2045 11.9814V12.5703C73.1284 13.25 72.9995 13.8711 72.8178 14.4336C72.6362 14.9961 72.3959 15.4824 72.0971 15.8926C71.7983 16.3027 71.4291 16.6191 70.9897 16.8418C70.5561 17.0645 70.0434 17.1758 69.4516 17.1758C68.8715 17.1758 68.3471 17.0557 67.8784 16.8154C67.4155 16.5752 67.017 16.2383 66.683 15.8047C66.3549 15.3711 66.103 14.8613 65.9272 14.2754C65.7514 13.6836 65.6635 13.042 65.6635 12.3506ZM67.7817 12.166V12.3506C67.7817 12.7842 67.8227 13.1885 67.9047 13.5635C67.9926 13.9385 68.1245 14.2695 68.3002 14.5566C68.4819 14.8379 68.7104 15.0605 68.9858 15.2246C69.267 15.3828 69.5981 15.4619 69.9789 15.4619C70.477 15.4619 70.8842 15.3564 71.2006 15.1455C71.5229 14.9346 71.769 14.6504 71.9389 14.293C72.1147 13.9297 72.2377 13.5254 72.308 13.0801V11.4893C72.2729 11.1436 72.1996 10.8213 72.0883 10.5225C71.9828 10.2236 71.8393 9.96289 71.6577 9.74023C71.476 9.51172 71.2475 9.33594 70.9721 9.21289C70.6967 9.08398 70.3715 9.01953 69.9965 9.01953C69.6157 9.01953 69.2846 9.10156 69.0034 9.26562C68.7221 9.42969 68.4907 9.65527 68.309 9.94238C68.1332 10.2295 68.0014 10.5635 67.9135 10.9443C67.8256 11.3252 67.7817 11.7324 67.7817 12.166Z"/>
</mask>
<path d="M10.2559 9.54688V11.2959H3.46191V9.54688H10.2559ZM4.00684 4.20312V17H1.80078V4.20312H4.00684ZM11.9521 4.20312V17H9.75488V4.20312H11.9521ZM19.8215 17.1758C19.1184 17.1758 18.4827 17.0615 17.9143 16.833C17.3518 16.5986 16.8713 16.2734 16.4729 15.8574C16.0803 15.4414 15.7786 14.9521 15.5676 14.3896C15.3567 13.8271 15.2512 13.2207 15.2512 12.5703V12.2188C15.2512 11.4746 15.3596 10.8008 15.5764 10.1973C15.7932 9.59375 16.095 9.07812 16.4817 8.65039C16.8684 8.2168 17.3254 7.88574 17.8528 7.65723C18.3801 7.42871 18.9514 7.31445 19.5666 7.31445C20.2463 7.31445 20.8411 7.42871 21.3508 7.65723C21.8606 7.88574 22.2825 8.20801 22.6164 8.62402C22.9563 9.03418 23.2082 9.52344 23.3723 10.0918C23.5422 10.6602 23.6272 11.2871 23.6272 11.9727V12.8779H16.2795V11.3574H21.5354V11.1904C21.5237 10.8096 21.4475 10.4521 21.3069 10.1182C21.1721 9.78418 20.9641 9.51465 20.6829 9.30957C20.4016 9.10449 20.0266 9.00195 19.5579 9.00195C19.2063 9.00195 18.8928 9.07812 18.6174 9.23047C18.3479 9.37695 18.1223 9.59082 17.9407 9.87207C17.759 10.1533 17.6184 10.4932 17.5188 10.8916C17.425 11.2842 17.3782 11.7266 17.3782 12.2188V12.5703C17.3782 12.9863 17.4338 13.373 17.5452 13.7305C17.6623 14.082 17.8323 14.3896 18.0549 14.6533C18.2776 14.917 18.5471 15.125 18.8635 15.2773C19.1799 15.4238 19.5403 15.4971 19.9446 15.4971C20.4543 15.4971 20.9084 15.3945 21.3069 15.1895C21.7053 14.9844 22.051 14.6943 22.344 14.3193L23.4602 15.4004C23.2551 15.6992 22.9885 15.9863 22.6604 16.2617C22.3323 16.5312 21.9309 16.751 21.4563 16.9209C20.9875 17.0908 20.4426 17.1758 19.8215 17.1758ZM31.9009 15.0928V10.5576C31.9009 10.2178 31.8393 9.9248 31.7163 9.67871C31.5932 9.43262 31.4057 9.24219 31.1538 9.10742C30.9077 8.97266 30.5971 8.90527 30.2221 8.90527C29.8764 8.90527 29.5776 8.96387 29.3257 9.08105C29.0737 9.19824 28.8774 9.35645 28.7368 9.55566C28.5962 9.75488 28.5259 9.98047 28.5259 10.2324H26.4165C26.4165 9.85742 26.5073 9.49414 26.6889 9.14258C26.8706 8.79102 27.1343 8.47754 27.48 8.20215C27.8257 7.92676 28.2388 7.70996 28.7192 7.55176C29.1997 7.39355 29.7388 7.31445 30.3364 7.31445C31.0513 7.31445 31.6841 7.43457 32.2348 7.6748C32.7915 7.91504 33.228 8.27832 33.5444 8.76465C33.8667 9.24512 34.0278 9.84863 34.0278 10.5752V14.8027C34.0278 15.2363 34.0571 15.626 34.1157 15.9717C34.1802 16.3115 34.271 16.6074 34.3882 16.8594V17H32.2173C32.1177 16.7715 32.0386 16.4814 31.98 16.1299C31.9272 15.7725 31.9009 15.4268 31.9009 15.0928ZM32.2085 11.2168L32.2261 12.5264H30.7055C30.313 12.5264 29.9673 12.5645 29.6684 12.6406C29.3696 12.7109 29.1206 12.8164 28.9214 12.957C28.7221 13.0977 28.5727 13.2676 28.4731 13.4668C28.3735 13.666 28.3237 13.8916 28.3237 14.1436C28.3237 14.3955 28.3823 14.627 28.4995 14.8379C28.6167 15.043 28.7866 15.2041 29.0093 15.3213C29.2378 15.4385 29.5132 15.4971 29.8354 15.4971C30.269 15.4971 30.647 15.4092 30.9692 15.2334C31.2973 15.0518 31.5552 14.832 31.7427 14.5742C31.9302 14.3105 32.0298 14.0615 32.0415 13.8271L32.727 14.7676C32.6567 15.0078 32.5366 15.2656 32.3667 15.541C32.1968 15.8164 31.9741 16.0801 31.6987 16.332C31.4292 16.5781 31.104 16.7803 30.7231 16.9385C30.3481 17.0967 29.9145 17.1758 29.4223 17.1758C28.8013 17.1758 28.2475 17.0527 27.7612 16.8066C27.2749 16.5547 26.894 16.2178 26.6186 15.7959C26.3432 15.3682 26.2055 14.8848 26.2055 14.3457C26.2055 13.8418 26.2993 13.3965 26.4868 13.0098C26.6802 12.6172 26.9614 12.2891 27.3305 12.0254C27.7055 11.7617 28.1626 11.5625 28.7016 11.4277C29.2407 11.2871 29.8559 11.2168 30.5473 11.2168H32.2085ZM43.3034 15.0312V3.5H45.4304V17H43.5056L43.3034 15.0312ZM37.1159 12.3506V12.166C37.1159 11.4453 37.2009 10.7891 37.3708 10.1973C37.5407 9.59961 37.7868 9.08691 38.1091 8.65918C38.4314 8.22559 38.8239 7.89453 39.2868 7.66602C39.7497 7.43164 40.2712 7.31445 40.8513 7.31445C41.4255 7.31445 41.9294 7.42578 42.363 7.64844C42.7966 7.87109 43.1657 8.19043 43.4704 8.60645C43.7751 9.0166 44.0183 9.50879 44.1999 10.083C44.3816 10.6514 44.5105 11.2842 44.5866 11.9814V12.5703C44.5105 13.25 44.3816 13.8711 44.1999 14.4336C44.0183 14.9961 43.7751 15.4824 43.4704 15.8926C43.1657 16.3027 42.7937 16.6191 42.3542 16.8418C41.9206 17.0645 41.4138 17.1758 40.8337 17.1758C40.2595 17.1758 39.7409 17.0557 39.278 16.8154C38.821 16.5752 38.4314 16.2383 38.1091 15.8047C37.7868 15.3711 37.5407 14.8613 37.3708 14.2754C37.2009 13.6836 37.1159 13.042 37.1159 12.3506ZM39.2341 12.166V12.3506C39.2341 12.7842 39.2722 13.1885 39.3484 13.5635C39.4304 13.9385 39.5564 14.2695 39.7263 14.5566C39.8962 14.8379 40.1159 15.0605 40.3855 15.2246C40.6609 15.3828 40.989 15.4619 41.3698 15.4619C41.8503 15.4619 42.2458 15.3564 42.5564 15.1455C42.8669 14.9346 43.1101 14.6504 43.2859 14.293C43.4675 13.9297 43.5905 13.5254 43.655 13.0801V11.4893C43.6198 11.1436 43.5466 10.8213 43.4353 10.5225C43.3298 10.2236 43.1862 9.96289 43.0046 9.74023C42.823 9.51172 42.5974 9.33594 42.3279 9.21289C42.0642 9.08398 41.7507 9.01953 41.3874 9.01953C41.0007 9.01953 40.6726 9.10156 40.403 9.26562C40.1335 9.42969 39.9109 9.65527 39.7351 9.94238C39.5652 10.2295 39.4392 10.5635 39.3571 10.9443C39.2751 11.3252 39.2341 11.7324 39.2341 12.166ZM51.1728 7.49023V17H49.0459V7.49023H51.1728ZM48.9052 4.99414C48.9052 4.67187 49.0107 4.40527 49.2216 4.19434C49.4384 3.97754 49.7373 3.86914 50.1181 3.86914C50.4931 3.86914 50.789 3.97754 51.0058 4.19434C51.2226 4.40527 51.331 4.67187 51.331 4.99414C51.331 5.31055 51.2226 5.57422 51.0058 5.78516C50.789 5.99609 50.4931 6.10156 50.1181 6.10156C49.7373 6.10156 49.4384 5.99609 49.2216 5.78516C49.0107 5.57422 48.9052 5.31055 48.9052 4.99414ZM56.8537 9.52051V17H54.7355V7.49023H56.7307L56.8537 9.52051ZM56.4758 11.8936L55.7902 11.8848C55.7961 11.2109 55.8898 10.5928 56.0715 10.0303C56.259 9.46777 56.5168 8.98438 56.8449 8.58008C57.1789 8.17578 57.5773 7.86523 58.0402 7.64844C58.5031 7.42578 59.0187 7.31445 59.5871 7.31445C60.0441 7.31445 60.4572 7.37891 60.8264 7.50781C61.2014 7.63086 61.5207 7.83301 61.7844 8.11426C62.0539 8.39551 62.259 8.76172 62.3996 9.21289C62.5402 9.6582 62.6105 10.2061 62.6105 10.8564V17H60.4836V10.8477C60.4836 10.3906 60.4162 10.0303 60.2814 9.7666C60.1525 9.49707 59.9621 9.30664 59.7102 9.19531C59.4641 9.07812 59.1564 9.01953 58.7873 9.01953C58.424 9.01953 58.0988 9.0957 57.8117 9.24805C57.5246 9.40039 57.2814 9.6084 57.0822 9.87207C56.8889 10.1357 56.7395 10.4404 56.634 10.7861C56.5285 11.1318 56.4758 11.501 56.4758 11.8936ZM72.1235 7.49023H74.0483V16.7363C74.0483 17.5918 73.8666 18.3184 73.5034 18.916C73.1401 19.5137 72.6332 19.9678 71.9828 20.2783C71.3325 20.5947 70.5795 20.7529 69.7241 20.7529C69.3608 20.7529 68.9565 20.7002 68.5112 20.5947C68.0717 20.4893 67.644 20.3193 67.228 20.085C66.8178 19.8564 66.475 19.5547 66.1996 19.1797L67.1928 17.9316C67.5327 18.3359 67.9077 18.6318 68.3178 18.8193C68.728 19.0068 69.1586 19.1006 69.6098 19.1006C70.0961 19.1006 70.5092 19.0098 70.8491 18.8281C71.1948 18.6523 71.4614 18.3916 71.6489 18.0459C71.8364 17.7002 71.9301 17.2783 71.9301 16.7803V9.64355L72.1235 7.49023ZM65.6635 12.3506V12.166C65.6635 11.4453 65.7514 10.7891 65.9272 10.1973C66.103 9.59961 66.3549 9.08691 66.683 8.65918C67.0112 8.22559 67.4096 7.89453 67.8784 7.66602C68.3471 7.43164 68.8774 7.31445 69.4692 7.31445C70.0844 7.31445 70.6088 7.42578 71.0424 7.64844C71.4819 7.87109 71.8481 8.19043 72.1411 8.60645C72.434 9.0166 72.6625 9.50879 72.8266 10.083C72.9965 10.6514 73.1225 11.2842 73.2045 11.9814V12.5703C73.1284 13.25 72.9995 13.8711 72.8178 14.4336C72.6362 14.9961 72.3959 15.4824 72.0971 15.8926C71.7983 16.3027 71.4291 16.6191 70.9897 16.8418C70.5561 17.0645 70.0434 17.1758 69.4516 17.1758C68.8715 17.1758 68.3471 17.0557 67.8784 16.8154C67.4155 16.5752 67.017 16.2383 66.683 15.8047C66.3549 15.3711 66.103 14.8613 65.9272 14.2754C65.7514 13.6836 65.6635 13.042 65.6635 12.3506ZM67.7817 12.166V12.3506C67.7817 12.7842 67.8227 13.1885 67.9047 13.5635C67.9926 13.9385 68.1245 14.2695 68.3002 14.5566C68.4819 14.8379 68.7104 15.0605 68.9858 15.2246C69.267 15.3828 69.5981 15.4619 69.9789 15.4619C70.477 15.4619 70.8842 15.3564 71.2006 15.1455C71.5229 14.9346 71.769 14.6504 71.9389 14.293C72.1147 13.9297 72.2377 13.5254 72.308 13.0801V11.4893C72.2729 11.1436 72.1996 10.8213 72.0883 10.5225C71.9828 10.2236 71.8393 9.96289 71.6577 9.74023C71.476 9.51172 71.2475 9.33594 70.9721 9.21289C70.6967 9.08398 70.3715 9.01953 69.9965 9.01953C69.6157 9.01953 69.2846 9.10156 69.0034 9.26562C68.7221 9.42969 68.4907 9.65527 68.309 9.94238C68.1332 10.2295 68.0014 10.5635 67.9135 10.9443C67.8256 11.3252 67.7817 11.7324 67.7817 12.166Z" fill="white"/>
<path d="M10.2559 9.54688H11.2559V8.54688H10.2559V9.54688ZM10.2559 11.2959V12.2959H11.2559V11.2959H10.2559ZM3.46191 11.2959H2.46191V12.2959H3.46191V11.2959ZM3.46191 9.54688V8.54688H2.46191V9.54688H3.46191ZM4.00684 4.20312H5.00684V3.20312H4.00684V4.20312ZM4.00684 17V18H5.00684V17H4.00684ZM1.80078 17H0.800781V18H1.80078V17ZM1.80078 4.20312V3.20312H0.800781V4.20312H1.80078ZM11.9521 4.20312H12.9521V3.20312H11.9521V4.20312ZM11.9521 17V18H12.9521V17H11.9521ZM9.75488 17H8.75488V18H9.75488V17ZM9.75488 4.20312V3.20312H8.75488V4.20312H9.75488ZM9.25586 9.54688V11.2959H11.2559V9.54688H9.25586ZM10.2559 10.2959H3.46191V12.2959H10.2559V10.2959ZM4.46191 11.2959V9.54688H2.46191V11.2959H4.46191ZM3.46191 10.5469H10.2559V8.54688H3.46191V10.5469ZM3.00684 4.20312V17H5.00684V4.20312H3.00684ZM4.00684 16H1.80078V18H4.00684V16ZM2.80078 17V4.20312H0.800781V17H2.80078ZM1.80078 5.20312H4.00684V3.20312H1.80078V5.20312ZM10.9521 4.20312V17H12.9521V4.20312H10.9521ZM11.9521 16H9.75488V18H11.9521V16ZM10.7549 17V4.20312H8.75488V17H10.7549ZM9.75488 5.20312H11.9521V3.20312H9.75488V5.20312ZM17.9143 16.833L17.5297 17.7562L17.5413 17.7608L17.9143 16.833ZM16.4729 15.8574L15.7456 16.5438L15.7507 16.5491L16.4729 15.8574ZM16.4817 8.65039L17.2235 9.32105L17.228 9.31601L16.4817 8.65039ZM22.6164 8.62402L21.8366 9.25006L21.8415 9.25609L21.8464 9.26204L22.6164 8.62402ZM23.3723 10.0918L22.4115 10.3691L22.4142 10.3782L23.3723 10.0918ZM23.6272 12.8779V13.8779H24.6272V12.8779H23.6272ZM16.2795 12.8779H15.2795V13.8779H16.2795V12.8779ZM16.2795 11.3574V10.3574H15.2795V11.3574H16.2795ZM21.5354 11.3574V12.3574H22.5354V11.3574H21.5354ZM21.5354 11.1904H22.5354V11.175L22.5349 11.1597L21.5354 11.1904ZM21.3069 10.1182L20.3795 10.4924L20.3823 10.4993L20.3852 10.5062L21.3069 10.1182ZM18.6174 9.23047L19.0949 10.1091L19.1015 10.1055L18.6174 9.23047ZM17.5188 10.8916L16.5486 10.6491L16.5461 10.6593L17.5188 10.8916ZM17.5452 13.7305L16.5904 14.0279L16.5933 14.0373L16.5965 14.0467L17.5452 13.7305ZM18.8635 15.2773L18.4297 16.1783L18.4365 16.1816L18.4434 16.1848L18.8635 15.2773ZM22.344 14.3193L23.0397 13.601L22.2407 12.8272L21.556 13.7037L22.344 14.3193ZM23.4602 15.4004L24.2847 15.9662L24.7627 15.2697L24.1559 14.6821L23.4602 15.4004ZM22.6604 16.2617L23.2952 17.0345L23.3033 17.0277L22.6604 16.2617ZM21.4563 16.9209L21.1192 15.9794L21.1155 15.9808L21.4563 16.9209ZM19.8215 16.1758C19.2275 16.1758 18.7209 16.0795 18.2873 15.9052L17.5413 17.7608C18.2444 18.0435 19.0093 18.1758 19.8215 18.1758V16.1758ZM18.2989 15.9099C17.8562 15.7255 17.4927 15.4765 17.1951 15.1657L15.7507 16.5491C16.25 17.0704 16.8474 17.4718 17.5297 17.7561L18.2989 15.9099ZM17.2002 15.1711C16.9034 14.8566 16.6706 14.4829 16.5039 14.0385L14.6313 14.7408C14.8865 15.4214 15.2572 16.0262 15.7456 16.5437L17.2002 15.1711ZM16.5039 14.0385C16.3385 13.5972 16.2512 13.1107 16.2512 12.5703H14.2512C14.2512 13.3307 14.3749 14.057 14.6313 14.7408L16.5039 14.0385ZM16.2512 12.5703V12.2188H14.2512V12.5703H16.2512ZM16.2512 12.2188C16.2512 11.5717 16.3454 11.0145 16.5175 10.5353L14.6353 9.85919C14.3738 10.587 14.2512 11.3775 14.2512 12.2188H16.2512ZM16.5175 10.5353C16.6952 10.0409 16.9336 9.64169 17.2235 9.32104L15.7399 7.97974C15.2564 8.51456 14.8912 9.14665 14.6353 9.85919L16.5175 10.5353ZM17.228 9.31601C17.5192 8.98947 17.8577 8.74496 18.2504 8.57478L17.4552 6.73967C16.7932 7.02652 16.2176 7.44412 15.7354 7.98478L17.228 9.31601ZM18.2504 8.57478C18.6436 8.40441 19.0784 8.31445 19.5666 8.31445V6.31445C18.8244 6.31445 18.1167 6.45301 17.4552 6.73967L18.2504 8.57478ZM19.5666 8.31445C20.1352 8.31445 20.5854 8.40998 20.9418 8.56974L21.7599 6.74472C21.0967 6.44744 20.3574 6.31445 19.5666 6.31445V8.31445ZM20.9418 8.56974C21.314 8.73661 21.6065 8.96341 21.8366 9.25006L23.3962 7.99799C22.9584 7.4526 22.4071 7.03487 21.7599 6.74472L20.9418 8.56974ZM21.8464 9.26204C22.0893 9.55521 22.2814 9.91817 22.4115 10.3691L24.3331 9.81446C24.1351 9.12871 23.8232 8.51315 23.3865 7.98601L21.8464 9.26204ZM22.4142 10.3782C22.5524 10.8405 22.6272 11.3694 22.6272 11.9727H24.6272C24.6272 11.2048 24.532 10.4798 24.3304 9.80536L22.4142 10.3782ZM22.6272 11.9727V12.8779H24.6272V11.9727H22.6272ZM23.6272 11.8779H16.2795V13.8779H23.6272V11.8779ZM17.2795 12.8779V11.3574H15.2795V12.8779H17.2795ZM16.2795 12.3574H21.5354V10.3574H16.2795V12.3574ZM22.5354 11.3574V11.1904H20.5354V11.3574H22.5354ZM22.5349 11.1597C22.5196 10.6623 22.4193 10.1832 22.2285 9.73011L20.3852 10.5062C20.4757 10.7211 20.5277 10.9568 20.5359 11.2212L22.5349 11.1597ZM22.2342 9.74397C22.0321 9.24294 21.7098 8.82074 21.272 8.50156L20.0937 10.1176C20.2185 10.2086 20.3122 10.3254 20.3795 10.4924L22.2342 9.74397ZM21.272 8.50156C20.7692 8.13492 20.166 8.00195 19.5579 8.00195V10.002C19.8872 10.002 20.034 10.0741 20.0937 10.1176L21.272 8.50156ZM19.5579 8.00195C19.0572 8.00195 18.5736 8.11187 18.1334 8.35543L19.1015 10.1055C19.212 10.0444 19.3554 10.002 19.5579 10.002V8.00195ZM18.1399 8.35184C17.7101 8.58542 17.3646 8.92086 17.1006 9.32955L18.7807 10.4146C18.88 10.2608 18.9857 10.1685 19.0949 10.1091L18.1399 8.35184ZM17.1006 9.32955C16.8477 9.72115 16.6691 10.1674 16.5486 10.6491L18.4889 11.1341C18.5677 10.8189 18.6703 10.5855 18.7807 10.4146L17.1006 9.32955ZM16.5461 10.6593C16.4308 11.1424 16.3782 11.6647 16.3782 12.2188H18.3782C18.3782 11.7884 18.4193 11.4259 18.4914 11.1239L16.5461 10.6593ZM16.3782 12.2188V12.5703H18.3782V12.2188H16.3782ZM16.3782 12.5703C16.3782 13.0761 16.446 13.5641 16.5904 14.0279L18.4999 13.4331C18.4217 13.182 18.3782 12.8966 18.3782 12.5703H16.3782ZM16.5965 14.0467C16.7508 14.5097 16.9805 14.9309 17.2909 15.2985L18.819 14.0081C18.684 13.8484 18.5739 13.6544 18.4938 13.4142L16.5965 14.0467ZM17.2909 15.2985C17.606 15.6717 17.9887 15.966 18.4297 16.1783L19.2973 14.3763C19.1055 14.284 18.9491 14.1623 18.819 14.0081L17.2909 15.2985ZM18.4434 16.1848C18.9109 16.4012 19.4182 16.4971 19.9446 16.4971V14.4971C19.6623 14.4971 19.449 14.4464 19.2836 14.3699L18.4434 16.1848ZM19.9446 16.4971C20.5915 16.4971 21.2061 16.366 21.7645 16.0786L20.8492 14.3003C20.6107 14.4231 20.3172 14.4971 19.9446 14.4971V16.4971ZM21.7645 16.0786C22.2995 15.8033 22.7556 15.4168 23.132 14.935L21.556 13.7037C21.3464 13.9719 21.1112 14.1655 20.8492 14.3003L21.7645 16.0786ZM21.6483 15.0377L22.7645 16.1187L24.1559 14.6821L23.0397 13.601L21.6483 15.0377ZM22.6357 14.8345C22.4901 15.0467 22.2885 15.2683 22.0175 15.4957L23.3033 17.0277C23.6885 16.7044 24.0201 16.3518 24.2847 15.9662L22.6357 14.8345ZM22.0257 15.489C21.8012 15.6734 21.5054 15.8412 21.1192 15.9794L21.7934 17.8624C22.3564 17.6608 22.8633 17.3891 23.2951 17.0344L22.0257 15.489ZM21.1155 15.9808C20.7791 16.1027 20.3538 16.1758 19.8215 16.1758V18.1758C20.5314 18.1758 21.196 18.0789 21.7971 17.861L21.1155 15.9808ZM31.1538 9.10742L30.6735 9.98456L30.6821 9.98921L31.1538 9.10742ZM28.5259 10.2324V11.2324H29.5259V10.2324H28.5259ZM26.4165 10.2324H25.4165V11.2324H26.4165V10.2324ZM32.2348 7.6748L31.835 8.59142L31.8386 8.59295L32.2348 7.6748ZM33.5444 8.76465L32.7061 9.31005L32.7139 9.32168L33.5444 8.76465ZM34.1157 15.9717L33.1298 16.1388L33.1314 16.1484L33.1332 16.158L34.1157 15.9717ZM34.3882 16.8594H35.3882V16.6382L35.2949 16.4376L34.3882 16.8594ZM34.3882 17V18H35.3882V17H34.3882ZM32.2173 17L31.3006 17.3996L31.5623 18H32.2173V17ZM31.98 16.1299L30.9907 16.2758L30.992 16.2851L30.9936 16.2943L31.98 16.1299ZM32.2085 11.2168L33.2084 11.2034L33.1951 10.2168H32.2085V11.2168ZM32.2261 12.5264V13.5264H33.2396L33.226 12.5129L32.2261 12.5264ZM29.6684 12.6406L29.8975 13.614L29.9065 13.6119L29.9154 13.6096L29.6684 12.6406ZM28.4995 14.8379L27.6253 15.3236L27.6313 15.334L28.4995 14.8379ZM29.0093 15.3213L28.5435 16.2063L28.5529 16.2111L29.0093 15.3213ZM30.9692 15.2334L31.4481 16.1113L31.4535 16.1083L30.9692 15.2334ZM31.7427 14.5742L32.5514 15.1624L32.5576 15.1537L31.7427 14.5742ZM32.0415 13.8271L32.8496 13.2381L31.1839 10.9532L31.0427 13.7772L32.0415 13.8271ZM32.727 14.7676L33.6868 15.0485L33.825 14.5762L33.5351 14.1785L32.727 14.7676ZM31.6987 16.332L32.373 17.0705L32.3737 17.0698L31.6987 16.332ZM30.7231 16.9385L30.3395 16.015L30.3344 16.0171L30.7231 16.9385ZM27.7612 16.8066L27.3012 17.6946L27.3097 17.6989L27.7612 16.8066ZM26.6186 15.7959L25.7778 16.3372L25.7813 16.3425L26.6186 15.7959ZM26.4868 13.0098L25.5897 12.5679L25.587 12.5735L26.4868 13.0098ZM27.3305 12.0254L26.7554 11.2073L26.7493 11.2117L27.3305 12.0254ZM28.7016 11.4277L28.9442 12.3979L28.9541 12.3954L28.7016 11.4277ZM32.9009 15.0928V10.5576H30.9009V15.0928H32.9009ZM32.9009 10.5576C32.9009 10.0983 32.8176 9.64527 32.6107 9.2315L30.8219 10.1259C30.8611 10.2043 30.9009 10.3372 30.9009 10.5576H32.9009ZM32.6107 9.2315C32.3914 8.79284 32.0524 8.45402 31.6254 8.22564L30.6821 9.98921C30.7591 10.0304 30.7951 10.0724 30.8219 10.1259L32.6107 9.2315ZM31.6341 8.23033C31.1995 7.99233 30.7107 7.90527 30.2221 7.90527V9.90527C30.4836 9.90527 30.6159 9.95298 30.6735 9.98452L31.6341 8.23033ZM30.2221 7.90527C29.7654 7.90527 29.3162 7.9826 28.9039 8.17433L29.7474 9.98778C29.8391 9.94513 29.9875 9.90527 30.2221 9.90527V7.90527ZM28.9039 8.17433C28.5161 8.35471 28.1745 8.61819 27.9198 8.97898L29.5538 10.1323C29.5803 10.0947 29.6313 10.0418 29.7474 9.98778L28.9039 8.17433ZM27.9198 8.97898C27.656 9.35279 27.5259 9.78127 27.5259 10.2324H29.5259C29.5259 10.1797 29.5364 10.157 29.5538 10.1323L27.9198 8.97898ZM28.5259 9.23242H26.4165V11.2324H28.5259V9.23242ZM27.4165 10.2324C27.4165 10.026 27.4649 9.81933 27.5774 9.6016L25.8005 8.68356C25.5497 9.16895 25.4165 9.68886 25.4165 10.2324H27.4165ZM27.5774 9.6016C27.6871 9.38915 27.8546 9.1822 28.103 8.98431L26.8569 7.41999C26.4139 7.77288 26.054 8.19288 25.8005 8.68356L27.5774 9.6016ZM28.103 8.98431C28.3437 8.7926 28.648 8.62802 29.032 8.50159L28.4065 6.60192C27.8295 6.7919 27.3076 7.06091 26.8569 7.41999L28.103 8.98431ZM29.032 8.50159C29.3951 8.38202 29.8262 8.31445 30.3364 8.31445V6.31445C29.6513 6.31445 29.0043 6.40509 28.4065 6.60192L29.032 8.50159ZM30.3364 8.31445C30.9393 8.31445 31.432 8.41559 31.835 8.59141L32.6346 6.7582C31.9362 6.45355 31.1632 6.31445 30.3364 6.31445V8.31445ZM31.8386 8.59295C32.223 8.75885 32.5022 8.9964 32.7062 9.30999L34.3826 8.21931C33.9538 7.56024 33.36 7.07123 32.6311 6.75666L31.8386 8.59295ZM32.7139 9.32168C32.9004 9.59974 33.0278 9.99621 33.0278 10.5752H35.0278C35.0278 9.70105 34.8329 8.8905 34.3749 8.20761L32.7139 9.32168ZM33.0278 10.5752V14.8027H35.0278V10.5752H33.0278ZM33.0278 14.8027C33.0278 15.2798 33.0599 15.7268 33.1298 16.1388L35.1016 15.8046C35.0543 15.5252 35.0278 15.1929 35.0278 14.8027H33.0278ZM33.1332 16.158C33.2095 16.5602 33.3221 16.9385 33.4814 17.2811L35.2949 16.4376C35.2199 16.2764 35.1508 16.0628 35.0982 15.7853L33.1332 16.158ZM33.3882 16.8594V17H35.3882V16.8594H33.3882ZM34.3882 16H32.2173V18H34.3882V16ZM33.134 16.6004C33.0778 16.4717 33.0167 16.2676 32.9664 15.9655L30.9936 16.2943C31.0604 16.6953 31.1575 17.0713 31.3006 17.3996L33.134 16.6004ZM32.9693 15.9839C32.9231 15.6709 32.9009 15.3741 32.9009 15.0928H30.9009C30.9009 15.4794 30.9314 15.874 30.9907 16.2758L32.9693 15.9839ZM31.2086 11.2302L31.2261 12.5398L33.226 12.5129L33.2084 11.2034L31.2086 11.2302ZM32.2261 11.5264H30.7055V13.5264H32.2261V11.5264ZM30.7055 11.5264C30.2511 11.5264 29.8194 11.5702 29.4214 11.6716L29.9154 13.6096C30.1151 13.5587 30.3748 13.5264 30.7055 13.5264V11.5264ZM29.4394 11.6672C29.0468 11.7596 28.672 11.909 28.3447 12.1401L29.4981 13.774C29.5692 13.7238 29.6924 13.6623 29.8975 13.614L29.4394 11.6672ZM28.3447 12.1401C28.0237 12.3666 27.7589 12.6591 27.5787 13.0196L29.3676 13.914C29.3865 13.876 29.4206 13.8287 29.4981 13.774L28.3447 12.1401ZM27.5787 13.0196C27.401 13.3749 27.3237 13.7569 27.3237 14.1436H29.3237C29.3237 14.0263 29.346 13.9571 29.3676 13.914L27.5787 13.0196ZM27.3237 14.1436C27.3237 14.5577 27.4219 14.9574 27.6253 15.3235L29.3736 14.3522C29.3427 14.2965 29.3237 14.2334 29.3237 14.1436H27.3237ZM27.6313 15.334C27.8491 15.7153 28.1639 16.0064 28.5435 16.2062L29.475 14.4364C29.4093 14.4018 29.3842 14.3706 29.3677 14.3418L27.6313 15.334ZM28.5529 16.2111C28.9541 16.4168 29.394 16.4971 29.8354 16.4971V14.4971C29.6323 14.4971 29.5215 14.4601 29.4656 14.4315L28.5529 16.2111ZM29.8354 16.4971C30.406 16.4971 30.9544 16.3806 31.4481 16.1113L30.4904 14.3555C30.3395 14.4378 30.1321 14.4971 29.8354 14.4971V16.4971ZM31.4535 16.1083C31.8871 15.8683 32.2641 15.5574 32.5514 15.1624L30.9339 13.986C30.8462 14.1067 30.7076 14.2352 30.4849 14.3585L31.4535 16.1083ZM32.5576 15.1537C32.8153 14.7914 33.016 14.3612 33.0402 13.8771L31.0427 13.7772C31.0435 13.7618 31.0451 13.8297 30.9277 13.9947L32.5576 15.1537ZM31.2334 14.4162L31.9189 15.3566L33.5351 14.1785L32.8496 13.2381L31.2334 14.4162ZM31.7673 14.4867C31.7282 14.6202 31.6515 14.7957 31.5156 15.0159L33.2177 16.0661C33.4217 15.7355 33.5852 15.3954 33.6868 15.0485L31.7673 14.4867ZM31.5156 15.0159C31.4011 15.2016 31.2411 15.3953 31.0237 15.5942L32.3737 17.0698C32.7071 16.7648 32.9925 16.4312 33.2177 16.0661L31.5156 15.0159ZM31.0244 15.5935C30.8507 15.7522 30.6273 15.8955 30.3395 16.015L31.1067 17.862C31.5807 17.6651 32.0077 17.4041 32.373 17.0705L31.0244 15.5935ZM30.3344 16.0171C30.1053 16.1138 29.8083 16.1758 29.4223 16.1758V18.1758C30.0207 18.1758 30.5909 18.0796 31.1118 17.8598L30.3344 16.0171ZM29.4223 16.1758C28.9361 16.1758 28.5407 16.0803 28.2127 15.9144L27.3097 17.6989C27.9544 18.0251 28.6664 18.1758 29.4223 18.1758V16.1758ZM28.2212 15.9187C27.8743 15.739 27.629 15.5143 27.456 15.2493L25.7813 16.3425C26.159 16.9212 26.6755 17.3704 27.3012 17.6946L28.2212 15.9187ZM27.4594 15.2546C27.2943 14.9981 27.2055 14.7048 27.2055 14.3457H25.2055C25.2055 15.0647 25.3922 15.7383 25.7778 16.3372L27.4594 15.2546ZM27.2055 14.3457C27.2055 13.967 27.2755 13.6752 27.3866 13.446L25.587 12.5735C25.3231 13.1177 25.2055 13.7166 25.2055 14.3457H27.2055ZM27.3839 13.4516C27.5016 13.2127 27.6719 13.0105 27.9118 12.8391L26.7493 11.2117C26.2509 11.5677 25.8588 12.0217 25.5897 12.5679L27.3839 13.4516ZM27.9057 12.8434C28.1613 12.6637 28.4998 12.509 28.9442 12.3979L28.4591 10.4576C27.8253 10.616 27.2498 10.8597 26.7554 11.2074L27.9057 12.8434ZM28.9541 12.3954C29.3937 12.2807 29.9216 12.2168 30.5473 12.2168V10.2168C29.7903 10.2168 29.0877 10.2936 28.4492 10.4601L28.9541 12.3954ZM30.5473 12.2168H32.2085V10.2168H30.5473V12.2168ZM43.3034 15.0312H42.3034V15.0825L42.3087 15.1334L43.3034 15.0312ZM43.3034 3.5V2.5H42.3034V3.5H43.3034ZM45.4304 3.5H46.4304V2.5H45.4304V3.5ZM45.4304 17V18H46.4304V17H45.4304ZM43.5056 17L42.5108 17.1021L42.603 18H43.5056V17ZM37.3708 10.1973L38.332 10.4732L38.3327 10.4707L37.3708 10.1973ZM38.1091 8.65918L38.9078 9.26094L38.9117 9.2557L38.1091 8.65918ZM39.2868 7.66602L39.7295 8.56275L39.7386 8.55817L39.2868 7.66602ZM43.4704 8.60645L42.6636 9.19733L42.6677 9.20277L43.4704 8.60645ZM44.1999 10.083L43.2465 10.3846L43.2474 10.3874L44.1999 10.083ZM44.5866 11.9814H45.5866V11.927L45.5807 11.8728L44.5866 11.9814ZM44.5866 12.5703L45.5804 12.6817L45.5866 12.6262V12.5703H44.5866ZM42.3542 16.8418L41.9022 15.9497L41.8974 15.9522L42.3542 16.8418ZM39.278 16.8154L38.8128 17.7006L38.8174 17.703L39.278 16.8154ZM37.3708 14.2754L36.4097 14.5514L36.4104 14.5539L37.3708 14.2754ZM39.3484 13.5635L38.3684 13.7625L38.3699 13.7699L38.3715 13.7772L39.3484 13.5635ZM39.7263 14.5566L38.8657 15.066L38.8704 15.0738L39.7263 14.5566ZM40.3855 15.2246L39.8655 16.0788L39.8764 16.0854L39.8873 16.0917L40.3855 15.2246ZM43.2859 14.293L42.3914 13.8457L42.3885 13.8516L43.2859 14.293ZM43.655 13.0801L44.6447 13.2233L44.655 13.1521V13.0801H43.655ZM43.655 11.4893H44.655V11.4385L44.6499 11.3881L43.655 11.4893ZM43.4353 10.5225L42.4923 10.8553L42.4952 10.8635L42.4982 10.8716L43.4353 10.5225ZM43.0046 9.74023L42.2217 10.3625L42.2297 10.3724L43.0046 9.74023ZM42.3279 9.21289L41.8886 10.1113L41.9005 10.1171L41.9126 10.1226L42.3279 9.21289ZM39.7351 9.94238L38.8822 9.42023L38.8783 9.42662L38.8745 9.43306L39.7351 9.94238ZM44.3034 15.0312V3.5H42.3034V15.0312H44.3034ZM43.3034 4.5H45.4304V2.5H43.3034V4.5ZM44.4304 3.5V17H46.4304V3.5H44.4304ZM45.4304 16H43.5056V18H45.4304V16ZM44.5004 16.8979L44.2982 14.9291L42.3087 15.1334L42.5108 17.1021L44.5004 16.8979ZM38.1159 12.3506V12.166H36.1159V12.3506H38.1159ZM38.1159 12.166C38.1159 11.5232 38.1918 10.9616 38.332 10.4732L36.4097 9.92129C36.21 10.6166 36.1159 11.3674 36.1159 12.166H38.1159ZM38.3327 10.4707C38.4742 9.97292 38.6705 9.57581 38.9078 9.26093L37.3104 8.05743C36.9031 8.59802 36.6072 9.22629 36.4089 9.92379L38.3327 10.4707ZM38.9117 9.2557C39.144 8.94316 39.4153 8.7178 39.7295 8.5627L38.8442 6.76933C38.2326 7.07126 37.7187 7.50801 37.3065 8.06266L38.9117 9.2557ZM39.7386 8.55817C40.0456 8.4027 40.4094 8.31445 40.8513 8.31445V6.31445C40.133 6.31445 39.4538 6.46058 38.8351 6.77386L39.7386 8.55817ZM40.8513 8.31445C41.2948 8.31445 41.6371 8.3998 41.9062 8.538L42.8198 6.75887C42.2218 6.45176 41.5562 6.31445 40.8513 6.31445V8.31445ZM41.9062 8.538C42.1935 8.68554 42.4454 8.89925 42.6637 9.19732L44.2772 8.01557C43.8861 7.4816 43.3997 7.05664 42.8198 6.75887L41.9062 8.538ZM42.6677 9.20277C42.8955 9.50941 43.0925 9.89785 43.2465 10.3846L45.1534 9.78141C44.944 9.11973 44.6548 8.52379 44.2732 8.01012L42.6677 9.20277ZM43.2474 10.3874C43.4055 10.8821 43.5224 11.448 43.5926 12.09L45.5807 11.8728C45.4985 11.1203 45.3576 10.4206 45.1525 9.77859L43.2474 10.3874ZM43.5866 11.9814V12.5703H45.5866V11.9814H43.5866ZM43.5929 12.4589C43.523 13.0822 43.4065 13.6365 43.2483 14.1263L45.1515 14.7409C45.3567 14.1056 45.4979 13.4178 45.5804 12.6817L43.5929 12.4589ZM43.2483 14.1263C43.095 14.601 42.898 14.9862 42.6677 15.2963L44.2732 16.4889C44.6522 15.9786 44.9415 15.3912 45.1515 14.7409L43.2483 14.1263ZM42.6677 15.2963C42.4519 15.5868 42.1982 15.7998 41.9023 15.9498L42.8062 17.7338C43.3891 17.4385 43.8796 17.0187 44.2732 16.4889L42.6677 15.2963ZM41.8974 15.9522C41.6296 16.0897 41.2849 16.1758 40.8337 16.1758V18.1758C41.5426 18.1758 42.2116 18.0392 42.811 17.7314L41.8974 15.9522ZM40.8337 16.1758C40.4033 16.1758 40.0453 16.087 39.7387 15.9278L38.8174 17.703C39.4366 18.0243 40.1156 18.1758 40.8337 18.1758V16.1758ZM39.7433 15.9303C39.4251 15.763 39.1488 15.5272 38.9117 15.2082L37.3065 16.4012C37.7139 16.9494 38.2169 17.3874 38.8128 17.7006L39.7433 15.9303ZM38.9117 15.2082C38.6692 14.8819 38.4722 14.4829 38.3312 13.9969L36.4104 14.5539C36.6093 15.2397 36.9045 15.8603 37.3065 16.4012L38.9117 15.2082ZM38.332 13.9994C38.1908 13.5076 38.1159 12.9599 38.1159 12.3506H36.1159C36.1159 13.1241 36.211 13.8596 36.4097 14.5514L38.332 13.9994ZM38.2341 12.166V12.3506H40.2341V12.166H38.2341ZM38.2341 12.3506C38.2341 12.8424 38.2773 13.314 38.3684 13.7625L40.3283 13.3644C40.2671 13.0629 40.2341 12.726 40.2341 12.3506H38.2341ZM38.3715 13.7772C38.4729 14.2409 38.634 14.6745 38.8657 15.066L40.5869 14.0473C40.4787 13.8646 40.3879 13.6361 40.3253 13.3498L38.3715 13.7772ZM38.8704 15.0738C39.12 15.4869 39.4527 15.8275 39.8655 16.0788L40.9054 14.3704C40.7791 14.2935 40.6725 14.1889 40.5822 14.0395L38.8704 15.0738ZM39.8873 16.0917C40.3419 16.3528 40.849 16.4619 41.3698 16.4619V14.4619C41.1289 14.4619 40.9798 14.4128 40.8836 14.3575L39.8873 16.0917ZM41.3698 16.4619C41.9948 16.4619 42.6011 16.324 43.1182 15.9727L41.9945 14.3183C41.8905 14.3889 41.7058 14.4619 41.3698 14.4619V16.4619ZM43.1182 15.9727C43.581 15.6584 43.9358 15.2374 44.1832 14.7343L42.3885 13.8516C42.2844 14.0634 42.1529 14.2107 41.9945 14.3183L43.1182 15.9727ZM44.1803 14.7402C44.4146 14.2716 44.5666 13.7631 44.6447 13.2233L42.6653 12.9368C42.6145 13.2877 42.5204 13.5878 42.3914 13.8458L44.1803 14.7402ZM44.655 13.0801V11.4893H42.655V13.0801H44.655ZM44.6499 11.3881C44.6069 10.9651 44.516 10.5588 44.3724 10.1734L42.4982 10.8716C42.5772 11.0838 42.6328 11.322 42.6601 11.5904L44.6499 11.3881ZM44.3783 10.1896C44.2384 9.79324 44.0411 9.42881 43.7795 9.10811L42.2297 10.3724C42.3314 10.497 42.4213 10.654 42.4923 10.8553L44.3783 10.1896ZM43.7874 9.11799C43.5061 8.76411 43.1539 8.49072 42.7431 8.3032L41.9126 10.1226C42.0409 10.1812 42.1398 10.2593 42.2218 10.3625L43.7874 9.11799ZM42.7671 8.31451C42.338 8.10475 41.8675 8.01953 41.3874 8.01953V10.0195C41.6339 10.0195 41.7903 10.0632 41.8886 10.1113L42.7671 8.31451ZM41.3874 8.01953C40.8586 8.01953 40.3412 8.13258 39.8831 8.41143L40.923 10.1198C41.004 10.0705 41.1428 10.0195 41.3874 10.0195V8.01953ZM39.8831 8.41143C39.4688 8.66363 39.1353 9.00686 38.8822 9.42023L40.5879 10.4645C40.6864 10.3037 40.7983 10.1957 40.923 10.1198L39.8831 8.41143ZM38.8745 9.43306C38.6414 9.82687 38.4805 10.2649 38.3796 10.7338L40.3347 11.1549C40.3978 10.862 40.4889 10.6321 40.5957 10.4517L38.8745 9.43306ZM38.3796 10.7338C38.2811 11.1911 38.2341 11.6695 38.2341 12.166H40.2341C40.2341 11.7954 40.2692 11.4593 40.3347 11.1549L38.3796 10.7338ZM51.1728 7.49023H52.1728V6.49023H51.1728V7.49023ZM51.1728 17V18H52.1728V17H51.1728ZM49.0459 17H48.0459V18H49.0459V17ZM49.0459 7.49023V6.49023H48.0459V7.49023H49.0459ZM51.0058 4.19434L50.2986 4.90151L50.3085 4.91106L51.0058 4.19434ZM49.2216 5.78516L48.5145 6.49233L48.5243 6.50188L49.2216 5.78516ZM50.1728 7.49023V17H52.1728V7.49023H50.1728ZM51.1728 16H49.0459V18H51.1728V16ZM50.0459 17V7.49023H48.0459V17H50.0459ZM49.0459 8.49023H51.1728V6.49023H49.0459V8.49023ZM49.9052 4.99414C49.9052 4.9434 49.9132 4.92291 49.9142 4.92035C49.915 4.91831 49.9157 4.91697 49.9168 4.91531C49.918 4.91356 49.9213 4.9089 49.9287 4.90144L48.5145 3.48723C48.1001 3.9017 47.9052 4.43018 47.9052 4.99414H49.9052ZM49.9287 4.90144C49.9298 4.9004 49.9324 4.89667 49.9494 4.8905C49.9702 4.88294 50.0216 4.86914 50.1181 4.86914V2.86914C49.54 2.86914 48.962 3.03974 48.5145 3.48723L49.9287 4.90144ZM50.1181 4.86914C50.21 4.86914 50.2583 4.88244 50.2773 4.88942C50.2927 4.89506 50.296 4.8987 50.2987 4.90144L51.7129 3.48723C51.2683 3.04264 50.6954 2.86914 50.1181 2.86914V4.86914ZM50.3085 4.91106C50.3168 4.91917 50.3204 4.92419 50.3215 4.92584C50.3226 4.92738 50.323 4.92816 50.3234 4.92914C50.3234 4.92931 50.331 4.9467 50.331 4.99414H52.331C52.331 4.42157 52.1271 3.89009 51.7032 3.47761L50.3085 4.91106ZM50.331 4.99414C50.331 5.01603 50.3292 5.03012 50.3277 5.03787C50.3263 5.0454 50.325 5.04858 50.3248 5.04897C50.3247 5.04929 50.3244 5.04996 50.3232 5.05183C50.3218 5.05384 50.3177 5.05948 50.3085 5.06843L51.7032 6.50188C52.1232 6.0932 52.331 5.56661 52.331 4.99414H50.331ZM50.3085 5.06843C50.307 5.06984 50.3035 5.0741 50.2856 5.08051C50.264 5.0882 50.2128 5.10156 50.1181 5.10156V7.10156C50.6877 7.10156 51.2573 6.93573 51.7032 6.50188L50.3085 5.06843ZM50.1181 5.10156C50.0189 5.10156 49.9646 5.08773 49.9412 5.07947C49.9297 5.07543 49.9243 5.07227 49.9226 5.07126C49.9211 5.07033 49.9203 5.06967 49.919 5.06843L48.5243 6.50188C48.973 6.93849 49.5476 7.10156 50.1181 7.10156V5.10156ZM49.9287 5.07805C49.9204 5.06975 49.9167 5.06445 49.9153 5.06237C49.9139 5.06039 49.9134 5.05917 49.9128 5.05781C49.9124 5.05685 49.9052 5.03963 49.9052 4.99414H47.9052C47.9052 5.55791 48.1038 6.08153 48.5145 6.49226L49.9287 5.07805ZM56.8537 9.52051H57.8537V9.49023L57.8519 9.46001L56.8537 9.52051ZM56.8537 17V18H57.8537V17H56.8537ZM54.7355 17H53.7355V18H54.7355V17ZM54.7355 7.49023V6.49023H53.7355V7.49023H54.7355ZM56.7307 7.49023L57.7288 7.42974L57.6719 6.49023H56.7307V7.49023ZM56.4758 11.8936L56.463 12.8935L57.4758 12.9065V11.8936H56.4758ZM55.7902 11.8848L54.7903 11.8761L54.7816 12.8719L55.7774 12.8847L55.7902 11.8848ZM56.0715 10.0303L55.1228 9.71403L55.1199 9.72298L56.0715 10.0303ZM56.8449 8.58008L56.0739 7.94317L56.0685 7.94991L56.8449 8.58008ZM58.0402 7.64844L58.4644 8.55408L58.4737 8.5496L58.0402 7.64844ZM60.8264 7.50781L60.4967 8.4519L60.5056 8.45502L60.5146 8.45797L60.8264 7.50781ZM61.7844 8.11426L61.0548 8.79824L61.0624 8.80616L61.7844 8.11426ZM62.3996 9.21289L61.4449 9.51046L61.446 9.51402L62.3996 9.21289ZM62.6105 17V18H63.6105V17H62.6105ZM60.4836 17H59.4836V18H60.4836V17ZM60.2814 9.7666L59.3793 10.1981L59.385 10.21L59.391 10.2217L60.2814 9.7666ZM59.7102 9.19531L59.2802 10.0982L59.293 10.1043L59.306 10.11L59.7102 9.19531ZM57.0822 9.87207L56.2844 9.26924L56.28 9.27494L56.2758 9.28071L57.0822 9.87207ZM55.8537 9.52051V17H57.8537V9.52051H55.8537ZM56.8537 16H54.7355V18H56.8537V16ZM55.7355 17V7.49023H53.7355V17H55.7355ZM54.7355 8.49023H56.7307V6.49023H54.7355V8.49023ZM55.7325 7.55073L55.8555 9.581L57.8519 9.46001L57.7288 7.42974L55.7325 7.55073ZM56.4886 10.8936L55.8031 10.8848L55.7774 12.8847L56.463 12.8935L56.4886 10.8936ZM56.7902 11.8935C56.7953 11.3071 56.8766 10.7911 57.0231 10.3376L55.1199 9.72298C54.9031 10.3944 54.7969 11.1148 54.7903 11.8761L56.7902 11.8935ZM57.0202 10.3465C57.1748 9.88249 57.3788 9.50909 57.6214 9.21025L56.0685 7.94991C55.6548 8.45966 55.3431 9.05306 55.1228 9.71405L57.0202 10.3465ZM57.6159 9.21696C57.8581 8.92375 58.1391 8.70638 58.4644 8.55403L57.6161 6.74284C57.0156 7.02409 56.4997 7.42781 56.074 7.9432L57.6159 9.21696ZM58.4737 8.5496C58.7875 8.39866 59.1527 8.31445 59.5871 8.31445V6.31445C58.8848 6.31445 58.2187 6.4529 57.6068 6.74727L58.4737 8.5496ZM59.5871 8.31445C59.9504 8.31445 60.2497 8.36566 60.4967 8.4519L61.156 6.56372C60.6647 6.39215 60.1378 6.31445 59.5871 6.31445V8.31445ZM60.5146 8.45797C60.7342 8.53001 60.9087 8.64231 61.0548 8.7982L62.5139 7.43032C62.1327 7.0237 61.6686 6.7317 61.1381 6.55765L60.5146 8.45797ZM61.0624 8.80616C61.2045 8.95442 61.3406 9.17592 61.4449 9.51046L63.3543 8.91532C63.1773 8.34751 62.9033 7.8366 62.5064 7.42235L61.0624 8.80616ZM61.446 9.51402C61.5465 9.83205 61.6105 10.2713 61.6105 10.8564H63.6105C63.6105 10.1408 63.534 9.48436 63.3532 8.91176L61.446 9.51402ZM61.6105 10.8564V17H63.6105V10.8564H61.6105ZM62.6105 16H60.4836V18H62.6105V16ZM61.4836 17V10.8477H59.4836V17H61.4836ZM61.4836 10.8477C61.4836 10.3104 61.4073 9.77209 61.1719 9.31149L59.391 10.2217C59.4251 10.2885 59.4836 10.4709 59.4836 10.8477H61.4836ZM61.1836 9.33515C60.9611 8.86992 60.6038 8.49689 60.1143 8.28063L59.306 10.11C59.3205 10.1164 59.344 10.1242 59.3793 10.1981L61.1836 9.33515ZM60.1401 8.29245C59.7209 8.09284 59.2553 8.01953 58.7873 8.01953V10.0195C59.0576 10.0195 59.2072 10.0634 59.2802 10.0982L60.1401 8.29245ZM58.7873 8.01953C58.2801 8.01953 57.7908 8.1271 57.343 8.3647L58.2804 10.1314C58.4069 10.0643 58.5679 10.0195 58.7873 10.0195V8.01953ZM57.343 8.3647C56.9248 8.58659 56.57 8.89118 56.2844 9.26924L57.8801 10.4749C57.9929 10.3256 58.1244 10.2142 58.2804 10.1314L57.343 8.3647ZM56.2758 9.28071C56.0093 9.64412 55.8124 10.0523 55.6775 10.4943L57.5905 11.0779C57.6665 10.8285 57.7684 10.6274 57.8886 10.4634L56.2758 9.28071ZM55.6775 10.4943C55.5408 10.9424 55.4758 11.4106 55.4758 11.8936H57.4758C57.4758 11.5914 57.5162 11.3213 57.5905 11.0779L55.6775 10.4943ZM72.1235 7.49023V6.49023H71.2092L71.1275 7.4008L72.1235 7.49023ZM74.0483 7.49023H75.0483V6.49023H74.0483V7.49023ZM71.9828 20.2783L71.552 19.3759L71.5454 19.3791L71.9828 20.2783ZM68.5112 20.5947L68.2778 21.5671L68.2807 21.5678L68.5112 20.5947ZM67.228 20.085L67.7188 19.2137L67.7147 19.2114L67.228 20.085ZM66.1996 19.1797L65.4172 18.557L64.9411 19.1553L65.3936 19.7716L66.1996 19.1797ZM67.1928 17.9316L67.9583 17.2882L67.1716 16.3523L66.4103 17.309L67.1928 17.9316ZM70.8491 18.8281L70.3958 17.9367L70.3867 17.9414L70.3777 17.9462L70.8491 18.8281ZM71.9301 9.64355L70.9341 9.55412L70.9301 9.59875V9.64355H71.9301ZM65.9272 10.1973L66.8858 10.482L66.8866 10.4794L65.9272 10.1973ZM66.683 8.65918L67.4765 9.26785L67.4805 9.26262L66.683 8.65918ZM67.8784 7.66602L68.3166 8.56494L68.3256 8.56044L67.8784 7.66602ZM71.0424 7.64844L70.5856 8.53802L70.5905 8.54047L71.0424 7.64844ZM72.1411 8.60645L71.3234 9.18224L71.3273 9.18768L72.1411 8.60645ZM72.8266 10.083L71.865 10.3577L71.8685 10.3694L72.8266 10.083ZM73.2045 11.9814H74.2045V11.9228L74.1977 11.8646L73.2045 11.9814ZM73.2045 12.5703L74.1983 12.6817L74.2045 12.6262V12.5703H73.2045ZM70.9897 16.8418L70.5377 15.9497L70.5329 15.9522L70.9897 16.8418ZM67.8784 16.8154L67.4177 17.703L67.4223 17.7054L67.8784 16.8154ZM66.683 15.8047L65.8856 16.4082L65.8908 16.4149L66.683 15.8047ZM65.9272 14.2754L64.9686 14.5601L64.9694 14.5627L65.9272 14.2754ZM67.9047 13.5635L66.9278 13.7772L66.9294 13.7844L66.9311 13.7917L67.9047 13.5635ZM68.3002 14.5566L67.4474 15.0788L67.4537 15.0891L67.4602 15.0992L68.3002 14.5566ZM68.9858 15.2246L68.474 16.0837L68.4847 16.0901L68.4955 16.0962L68.9858 15.2246ZM71.2006 15.1455L70.6529 14.3088L70.6459 14.3135L71.2006 15.1455ZM71.9389 14.293L71.0387 13.8574L71.0358 13.8636L71.9389 14.293ZM72.308 13.0801L73.2958 13.236L73.308 13.1585V13.0801H72.308ZM72.308 11.4893H73.308V11.4385L73.3029 11.3881L72.308 11.4893ZM72.0883 10.5225L71.1453 10.8553L71.1482 10.8635L71.1512 10.8716L72.0883 10.5225ZM71.6577 9.74023L70.8748 10.3625L70.8828 10.3724L71.6577 9.74023ZM70.9721 9.21289L70.5482 10.1186L70.5561 10.1223L70.5642 10.1259L70.9721 9.21289ZM68.309 9.94238L67.4639 9.40774L67.46 9.41396L67.4562 9.42023L68.309 9.94238ZM72.1235 8.49023H74.0483V6.49023H72.1235V8.49023ZM73.0483 7.49023V16.7363H75.0483V7.49023H73.0483ZM73.0483 16.7363C73.0483 17.4495 72.8978 17.9871 72.6488 18.3966L74.3579 19.4354C74.8355 18.6496 75.0483 17.7341 75.0483 16.7363H73.0483ZM72.6488 18.3966C72.3897 18.8228 72.0326 19.1464 71.552 19.3759L72.4137 21.1807C73.2339 20.7891 73.8904 20.2045 74.3579 19.4354L72.6488 18.3966ZM71.5454 19.3791C71.054 19.6181 70.4554 19.7529 69.7241 19.7529V21.7529C70.7036 21.7529 71.6109 21.5713 72.4203 21.1776L71.5454 19.3791ZM69.7241 19.7529C69.4554 19.7529 69.13 19.7136 68.7416 19.6216L68.2807 21.5678C68.783 21.6868 69.2662 21.7529 69.7241 21.7529V19.7529ZM68.7445 19.6223C68.4001 19.5397 68.0587 19.4052 67.7188 19.2137L66.7371 20.9562C67.2293 21.2335 67.7433 21.4388 68.2778 21.5671L68.7445 19.6223ZM67.7147 19.2114C67.4287 19.0521 67.1953 18.846 67.0057 18.5878L65.3936 19.7716C65.7548 20.2634 66.2069 20.6608 66.7413 20.9585L67.7147 19.2114ZM66.9821 19.8024L67.9753 18.5543L66.4103 17.309L65.4172 18.557L66.9821 19.8024ZM66.4273 18.5751C66.8464 19.0736 67.3358 19.47 67.9021 19.7288L68.7336 17.9099C68.4795 17.7937 68.2189 17.5983 67.9583 17.2882L66.4273 18.5751ZM67.9021 19.7288C68.4427 19.976 69.0152 20.1006 69.6098 20.1006V18.1006C69.302 18.1006 69.0132 18.0377 68.7336 17.9099L67.9021 19.7288ZM69.6098 20.1006C70.2184 20.1006 70.8024 19.9869 71.3204 19.7101L70.3777 17.9462C70.216 18.0326 69.9739 18.1006 69.6098 18.1006V20.1006ZM71.3023 19.7195C71.8314 19.4505 72.2452 19.0439 72.5279 18.5227L70.7698 17.5691C70.6775 17.7393 70.5582 17.8542 70.3958 17.9367L71.3023 19.7195ZM72.5279 18.5227C72.8132 17.9967 72.9301 17.4014 72.9301 16.7803H70.9301C70.9301 17.1552 70.8595 17.4037 70.7698 17.5691L72.5279 18.5227ZM72.9301 16.7803V9.64355H70.9301V16.7803H72.9301ZM72.9261 9.73299L73.1195 7.57967L71.1275 7.4008L70.9341 9.55412L72.9261 9.73299ZM66.6635 12.3506V12.166H64.6635V12.3506H66.6635ZM66.6635 12.166C66.6635 11.526 66.7416 10.9674 66.8858 10.482L64.9686 9.91253C64.7612 10.6107 64.6635 11.3646 64.6635 12.166H66.6635ZM66.8866 10.4794C67.0329 9.98177 67.234 9.58394 67.4765 9.26784L65.8896 8.05052C65.4759 8.58989 65.173 9.21745 64.9678 9.9151L66.8866 10.4794ZM67.4805 9.26262C67.7179 8.94885 67.9952 8.72156 68.3166 8.56489L67.4402 6.76714C66.824 7.0675 66.3044 7.50233 65.8856 8.05574L67.4805 9.26262ZM68.3256 8.56044C68.6384 8.40401 69.0124 8.31445 69.4692 8.31445V6.31445C68.7424 6.31445 68.0558 6.45928 67.4311 6.77159L68.3256 8.56044ZM69.4692 8.31445C69.9662 8.31445 70.3256 8.40446 70.5856 8.538L71.4992 6.75887C70.8921 6.4471 70.2026 6.31445 69.4692 6.31445V8.31445ZM70.5905 8.54047C70.8791 8.68672 71.1214 8.89539 71.3234 9.18222L72.9587 8.03067C72.5747 7.48547 72.0846 7.05547 71.4944 6.7564L70.5905 8.54047ZM71.3273 9.18768C71.5429 9.48946 71.7267 9.87357 71.8651 10.3577L73.7881 9.80829C73.5983 9.14401 73.3252 8.54374 72.9548 8.02521L71.3273 9.18768ZM71.8685 10.3694C72.0192 10.8734 72.1349 11.4483 72.2114 12.0983L74.1977 11.8646C74.1101 11.12 73.9739 10.4293 73.7847 9.79657L71.8685 10.3694ZM72.2045 11.9814V12.5703H74.2045V11.9814H72.2045ZM72.2107 12.4589C72.1409 13.0822 72.0243 13.6365 71.8662 14.1263L73.7694 14.7409C73.9746 14.1056 74.1158 13.4178 74.1983 12.6817L72.2107 12.4589ZM71.8662 14.1263C71.7119 14.6042 71.516 14.992 71.2889 15.3037L72.9053 16.4814C73.2759 15.9728 73.5605 15.388 73.7694 14.7409L71.8662 14.1263ZM71.2889 15.3037C71.0803 15.5901 70.8318 15.8008 70.5377 15.9498L71.4417 17.7338C72.0265 17.4375 72.5163 17.0154 72.9053 16.4814L71.2889 15.3037ZM70.5329 15.9522C70.2678 16.0884 69.9181 16.1758 69.4516 16.1758V18.1758C70.1687 18.1758 70.8444 18.0405 71.4465 17.7314L70.5329 15.9522ZM69.4516 16.1758C69.0138 16.1758 68.6482 16.0863 68.3344 15.9255L67.4223 17.7054C68.046 18.025 68.7293 18.1758 69.4516 18.1758V16.1758ZM68.339 15.9278C68.0119 15.7581 67.7248 15.5184 67.4753 15.1945L65.8908 16.4149C66.3093 16.9582 66.819 17.3923 67.4177 17.703L68.339 15.9278ZM67.4805 15.2012C67.2326 14.8737 67.0308 14.4741 66.885 13.988L64.9694 14.5627C65.1751 15.2486 65.4772 15.8685 65.8856 16.4081L67.4805 15.2012ZM66.8858 13.9907C66.7405 13.5016 66.6635 12.957 66.6635 12.3506H64.6635C64.6635 13.127 64.7623 13.8656 64.9686 14.5601L66.8858 13.9907ZM66.7817 12.166V12.3506H68.7817V12.166H66.7817ZM66.7817 12.3506C66.7817 12.8469 66.8286 13.3236 66.9278 13.7772L68.8816 13.3498C68.8168 13.0533 68.7817 12.7214 68.7817 12.3506H66.7817ZM66.9311 13.7917C67.0399 14.2558 67.2086 14.6887 67.4474 15.0788L69.1531 14.0345C69.0403 13.8503 68.9454 13.6212 68.8783 13.3353L66.9311 13.7917ZM67.4602 15.0992C67.7216 15.5039 68.0603 15.8373 68.474 16.0837L69.4976 14.3655C69.3605 14.2838 69.2422 14.1719 69.1403 14.0141L67.4602 15.0992ZM68.4955 16.0962C68.9514 16.3526 69.4574 16.4619 69.9789 16.4619V14.4619C69.7387 14.4619 69.5827 14.413 69.476 14.353L68.4955 16.0962ZM69.9789 16.4619C70.6141 16.4619 71.2308 16.3273 71.7553 15.9776L70.6459 14.3135C70.5377 14.3856 70.3399 14.4619 69.9789 14.4619V16.4619ZM71.7483 15.9822C72.2286 15.6678 72.5956 15.2408 72.842 14.7223L71.0358 13.8636C70.9424 14.06 70.8172 14.2013 70.653 14.3088L71.7483 15.9822ZM72.8391 14.7285C73.0623 14.2672 73.212 13.7671 73.2958 13.236L71.3203 12.9241C71.2635 13.2836 71.1671 13.5922 71.0387 13.8574L72.8391 14.7285ZM73.308 13.0801V11.4893H71.308V13.0801H73.308ZM73.3029 11.3881C73.2599 10.9651 73.169 10.5588 73.0254 10.1734L71.1512 10.8716C71.2303 11.0838 71.2859 11.322 71.3132 11.5904L73.3029 11.3881ZM73.0313 10.1896C72.8914 9.79324 72.6941 9.42881 72.4325 9.10811L70.8828 10.3724C70.9844 10.497 71.0743 10.654 71.1453 10.8553L73.0313 10.1896ZM72.4405 9.11799C72.1556 8.75962 71.7969 8.48612 71.3801 8.29988L70.5642 10.1259C70.6981 10.1858 70.7964 10.2638 70.8748 10.3625L72.4405 9.11799ZM71.396 8.3072C70.9607 8.10343 70.4846 8.01953 69.9965 8.01953V10.0195C70.2584 10.0195 70.4327 10.0645 70.5482 10.1186L71.396 8.3072ZM69.9965 8.01953C69.4689 8.01953 68.9579 8.13443 68.4995 8.40185L69.5072 10.1294C69.6113 10.0687 69.7624 10.0195 69.9965 10.0195V8.01953ZM68.4995 8.40185C68.0737 8.65023 67.7274 8.99123 67.4639 9.40774L69.1541 10.477C69.2539 10.3193 69.3705 10.2091 69.5072 10.1294L68.4995 8.40185ZM67.4562 9.42023C67.2159 9.81269 67.0474 10.2502 66.9391 10.7195L68.8879 11.1692C68.9554 10.8768 69.0506 10.6463 69.1619 10.4645L67.4562 9.42023ZM66.9391 10.7195C66.8325 11.1816 66.7817 11.6649 66.7817 12.166H68.7817C68.7817 11.8 68.8188 11.4688 68.8879 11.1692L66.9391 10.7195Z" fill="#212121" mask="url(#path-1-outside-1_81_479)"/>
<rect x="0.75" y="23.25" width="73.5" height="2.5" fill="white" fill-opacity="0.3" stroke="#3C3C3C" stroke-width="0.5"/>
<rect x="0.75" y="28.25" width="67.5" height="2.5" fill="white" fill-opacity="0.3" stroke="#3C3C3C" stroke-width="0.5"/>
<rect x="0.75" y="33.25" width="71.5" height="2.5" fill="white" fill-opacity="0.3" stroke="#3C3C3C" stroke-width="0.5"/>
<rect x="0.75" y="38.25" width="28.5" height="2.5" fill="white" fill-opacity="0.3" stroke="#3C3C3C" stroke-width="0.5"/>
</svg>
