<svg width="49" height="40" viewBox="0 0 49 40" fill="none" xmlns="http://www.w3.org/2000/svg">
<path d="M7.27744 32.0938L6.9525 32.5H7.47266H24.3893H41.306H41.8204L41.5026 32.0955L28.2109 15.1789L28.0097 14.9228L27.8143 15.1833L20.7643 24.5833L17.3393 20.0167L17.1457 19.7585L16.9441 20.0105L7.27744 32.0938ZM5.05599 1.08333H43.7227C46.2502 1.08333 48.306 3.13915 48.306 5.66666V34.6667C48.306 37.1942 46.2502 39.25 43.7227 39.25H5.05599C2.52848 39.25 0.472656 37.1942 0.472656 34.6667V5.66666C0.472656 3.13915 2.52848 1.08333 5.05599 1.08333ZM13.8377 8.96829C13.111 8.24159 12.1254 7.83333 11.0977 7.83333C10.0699 7.83333 9.08432 8.24159 8.35762 8.96829C7.63091 9.69499 7.22266 10.6806 7.22266 11.7083C7.22266 12.736 7.63091 13.7217 8.35762 14.4484C9.08432 15.1751 10.0699 15.5833 11.0977 15.5833C12.1254 15.5833 13.111 15.1751 13.8377 14.4484C14.5644 13.7217 14.9727 12.736 14.9727 11.7083C14.9727 10.6806 14.5644 9.69499 13.8377 8.96829Z" fill="white" stroke="#212121" stroke-width="0.5"/>
</svg>
