<svg width="22" height="20" viewBox="0 0 22 20" fill="none" xmlns="http://www.w3.org/2000/svg">
<path d="M6.78185 13.2527C6.91857 13.2521 7.05382 13.2244 7.17977 13.1712C7.30571 13.118 7.41984 13.0403 7.51555 12.9427C7.70801 12.7491 7.81605 12.4872 7.81605 12.2141C7.81605 11.9411 7.70801 11.6792 7.51555 11.4856L4.07438 8.08578H14.5425C15.7759 8.08578 16.9587 8.57572 17.8307 9.4478C18.7028 10.3199 19.1928 11.5027 19.1928 12.736C19.1928 13.9693 18.7028 15.1521 17.8307 16.0242C16.9587 16.8963 15.7759 17.3862 14.5425 17.3862H11.9488C11.6747 17.3862 11.4118 17.4951 11.218 17.6889C11.0242 17.8827 10.9154 18.1455 10.9154 18.4196C10.9154 18.6937 11.0242 18.9565 11.218 19.1503C11.4118 19.3441 11.6747 19.453 11.9488 19.453H14.5425C16.324 19.453 18.0325 18.7453 19.2922 17.4856C20.5518 16.2259 21.2595 14.5175 21.2595 12.736C21.2595 10.9545 20.5518 9.24606 19.2922 7.98638C18.0325 6.7267 16.324 6.01902 14.5425 6.01902H4.06405L7.50521 2.61919C7.67601 2.42272 7.76636 2.16903 7.7582 1.90883C7.75004 1.64863 7.64397 1.40109 7.4612 1.21571C7.27843 1.03033 7.03242 0.920759 6.77236 0.908909C6.5123 0.897059 6.25735 0.9838 6.05848 1.15179L0.819229 6.3187C0.723454 6.41526 0.647681 6.52978 0.596255 6.65568C0.544829 6.78159 0.518762 6.9164 0.519549 7.0524C0.520116 7.18913 0.54781 7.32438 0.601026 7.45032C0.654241 7.57627 0.731921 7.6904 0.829563 7.7861L6.05848 12.953C6.25096 13.1439 6.51075 13.2516 6.78185 13.2527Z" fill="white"/>
</svg>
