<svg width="21" height="23" viewBox="0 0 21 23" fill="none" xmlns="http://www.w3.org/2000/svg">
<g clip-path="url(#clip0_81_608)">
<path d="M14.7372 14.2527C14.6005 14.2521 14.4652 14.2244 14.3393 14.1712C14.2133 14.118 14.0992 14.0403 14.0035 13.9427C13.811 13.7491 13.703 13.4872 13.703 13.2141C13.703 12.9411 13.811 12.6792 14.0035 12.4856L17.4447 9.08579H6.9765C5.74318 9.08579 4.56038 9.57572 3.6883 10.4478C2.81621 11.3199 2.32628 12.5027 2.32628 13.736C2.32628 14.9693 2.81621 16.1521 3.6883 17.0242C4.56038 17.8963 5.74318 18.3862 6.9765 18.3862H9.57029C9.84436 18.3862 10.1072 18.4951 10.301 18.6889C10.4948 18.8827 10.6037 19.1455 10.6037 19.4196C10.6037 19.6937 10.4948 19.9565 10.301 20.1503C10.1072 20.3441 9.84436 20.453 9.57029 20.453H6.9765C5.19504 20.453 3.48655 19.7453 2.22687 18.4856C0.967194 17.226 0.259512 15.5175 0.259512 13.736C0.259512 11.9546 0.967194 10.2461 2.22687 8.98638C3.48655 7.7267 5.19504 7.01902 6.9765 7.01902H17.455L14.0138 3.61919C13.843 3.42272 13.7527 3.16903 13.7608 2.90883C13.769 2.64863 13.8751 2.40109 14.0578 2.21571C14.2406 2.03033 14.4866 1.92076 14.7467 1.90891C15.0067 1.89706 15.2617 1.9838 15.4606 2.15179L20.6998 7.3187C20.7956 7.41526 20.8714 7.52978 20.9228 7.65568C20.9742 7.78159 21.0003 7.9164 20.9995 8.0524C20.9989 8.18913 20.9712 8.32438 20.918 8.45032C20.8648 8.57627 20.7871 8.6904 20.6895 8.78611L15.4606 13.953C15.2681 14.1439 15.0083 14.2516 14.7372 14.2527Z" fill="white"/>
</g>
<defs>
<clipPath id="clip0_81_608">
<rect width="20.74" height="22.3607" fill="white" transform="matrix(-1 0 0 1 20.9995 0)"/>
</clipPath>
</defs>
</svg>
