 <svg width="29" height="20" viewBox="0 0 29 20" fill="none" xmlns="http://www.w3.org/2000/svg">
<g clip-path="url(#clip0_81_597)">
<path d="M14.6389 19.5738C14.3776 19.5738 14.1157 19.5669 13.8527 19.553C8.25816 19.2547 3.16198 15.7616 0.870297 10.6533C0.744798 10.3735 0.735598 10.0553 0.844723 9.76868C0.953847 9.48208 1.17236 9.25056 1.45218 9.12506C1.732 8.99956 2.05022 8.99036 2.33683 9.09948C2.62344 9.20861 2.85495 9.42712 2.98045 9.70694C4.92122 14.0325 9.23692 16.9913 13.9758 17.2434C19.2055 17.5238 24.1606 14.4927 26.3084 9.70694C26.4339 9.42712 26.6654 9.20861 26.952 9.09948C27.2386 8.99036 27.5568 8.99956 27.8366 9.12506C28.1165 9.25056 28.335 9.48208 28.4441 9.76868C28.5532 10.0553 28.544 10.3735 28.4185 10.6533C25.9898 16.0652 20.5208 19.5738 14.6389 19.5738Z" fill="white"/>
<path d="M1.92471 11.3374C1.73166 11.3373 1.54168 11.289 1.37212 11.1967C1.20255 11.1044 1.05879 10.9712 0.953941 10.8091C0.849095 10.647 0.786505 10.4612 0.771878 10.2687C0.757252 10.0762 0.791056 9.88312 0.870206 9.70704C3.40644 4.05529 9.26169 0.481322 15.4355 0.807385C21.03 1.1057 26.1262 4.59873 28.4179 9.70704C28.48 9.8456 28.5142 9.99503 28.5186 10.1468C28.523 10.2986 28.4975 10.4498 28.4434 10.5917C28.3894 10.7336 28.3079 10.8635 28.2037 10.9739C28.0995 11.0843 27.9745 11.1732 27.836 11.2353C27.6974 11.2975 27.548 11.3317 27.3962 11.3361C27.2444 11.3405 27.0932 11.3149 26.9513 11.2609C26.8094 11.2069 26.6795 11.1254 26.5691 11.0212C26.4587 10.9169 26.3698 10.792 26.3077 10.6534C24.3669 6.3279 20.0512 3.36906 15.3123 3.11699C10.0849 2.83776 5.12752 5.86771 2.97978 10.6534C2.88883 10.8572 2.74076 11.0302 2.55352 11.1516C2.36627 11.273 2.14785 11.3375 1.92471 11.3374Z" fill="white"/>
<path d="M14.6439 14.9453C12.0163 14.9453 9.87842 12.808 9.87842 10.1804C9.87842 7.55286 12.0163 5.41553 14.6439 5.41553C17.2715 5.41553 19.4094 7.55286 19.4094 10.1804C19.4094 12.808 17.2715 14.9453 14.6439 14.9453ZM14.6439 7.72803C13.3142 7.72803 12.1909 8.85075 12.1909 10.1804C12.1909 11.5101 13.3142 12.6328 14.6439 12.6328C15.9736 12.6328 17.0969 11.5101 17.0969 10.1804C17.0969 8.85075 15.9736 7.72803 14.6439 7.72803Z" fill="white"/>
</g>
<defs>
<clipPath id="clip0_81_597">
<rect width="27.7511" height="18.7871" fill="white" transform="translate(0.768555 0.786804)"/>
</clipPath>
</defs>
</svg>